{"accessors" : [{"bufferView" : 0, "byteOffset" : 0, "componentType" : 5123, "count" : 366, "type" : "SCALAR", "max" : [310], "min" : [0]}, {"bufferView" : 1, "byteOffset" : 0, "componentType" : 5126, "count" : 311, "type" : "VEC3", "max" : [745.0952758789062, 250.40084838867188, -12.73348617553711], "min" : [-757.3096923828125, -250.40016174316406, -90.73348999023438], "name" : "POSITION"}, {"bufferView" : 1, "byteOffset" : 12, "componentType" : 5126, "count" : 311, "type" : "VEC3", "max" : [1.0000044107437134, 1.0000044107437134, 1.0000044107437134], "min" : [-1.0000044107437134, -1.0000044107437134, -1.0000044107437134], "name" : "NORMAL"}, {"bufferView" : 1, "byteOffset" : 24, "componentType" : 5126, "count" : 311, "type" : "VEC2", "max" : [19.684999465942383, 1], "min" : [-19.684999465942383, -18.684999465942383], "name" : "TEXCOORD_0"}, {"bufferView" : 0, "byteOffset" : 732, "componentType" : 5123, "count" : 930, "type" : "SCALAR", "max" : [784], "min" : [0]}, {"bufferView" : 2, "byteOffset" : 0, "componentType" : 5126, "count" : 785, "type" : "VEC3", "max" : [723.9027709960938, 230.00001525878906, 657.2665405273438], "min" : [-736.0972290039062, -229.99998474121094, -62.73348617553711], "name" : "POSITION"}, {"bufferView" : 2, "byteOffset" : 12, "componentType" : 5126, "count" : 785, "type" : "VEC3", "max" : [1.0000044107437134, 1.0000044107437134, 1.0000044107437134], "min" : [-1.0000044107437134, -1.0000044107437134, -2.3186419639387168E-05], "name" : "NORMAL"}, {"bufferView" : 2, "byteOffset" : 24, "componentType" : 5126, "count" : 785, "type" : "VEC2", "max" : [18.897600173950195, 2.4085500240325928], "min" : [-18.897600173950195, -27.346500396728516], "name" : "TEXCOORD_0"}], "asset" : {"generator" : "Aspose.3D 23.9.0", "version" : "2.0"}, "buffers" : [{"uri" : "data:application/octet-stream;base64,", "byteLength" : 44076}], "bufferViews" : [{"buffer" : 0, "byteOffset" : 0, "byteLength" : 2592, "target" : 34963}, {"buffer" : 0, "byteOffset" : 2596, "byteLength" : 11712, "byteStride" : 32, "target" : 34962}, {"buffer" : 0, "byteOffset" : 14312, "byteLength" : 29760, "byteStride" : 32, "target" : 34962}], "images" : [{"uri" : "data:image/jpeg;base64,"}], "materials" : [{"name" : "FrontColor", "pbrMetallicRoughness" : {"baseColorFactor" : [1, 1, 1, 1], "metallicFactor" : 0, "roughnessFactor" : 0.08181819319725037}, "emissiveFactor" : [0, 0, 0], "alphaMode" : "OPAQUE", "doubleSided" : true}, {"name" : "leg", "pbrMetallicRoughness" : {"baseColorFactor" : [1, 1, 1, 1], "baseColorTexture" : {"index" : 0, "texCoord" : 0}, "metallicFactor" : 0, "roughnessFactor" : 0.40909090638160706}, "emissiveFactor" : [0, 0, 0], "alphaMode" : "OPAQUE", "doubleSided" : true}], "meshes" : [{"primitives" : [{"attributes" : {"POSITION" : 1, "NORMAL" : 2, "TEXCOORD_0" : 3}, "indices" : 0, "material" : 0, "mode" : 4}, {"attributes" : {"POSITION" : 5, "NORMAL" : 6, "TEXCOORD_0" : 7}, "indices" : 4, "material" : 1, "mode" : 4}]}], "nodes" : [{"matrix" : [0.003894580528140068, 0, 0, 0, 0, -5.232713862498441E-10, 0.003894580394834228, 0, 0, -0.003894580394834228, -5.232713862498441E-10, 0, 0, 1.6710729598999023, 0, 1], "mesh" : 0, "name" : "3D desks (2)"}], "samplers" : [{"magFilter" : 9729, "minFilter" : 9987, "wrapS" : 33071, "wrapT" : 33071}], "scene" : 0, "scenes" : [{"nodes" : [0]}], "textures" : [{"sampler" : 0, "source" : 0, "name" : ""}]}