{"accessors" : [{"bufferView" : 0, "byteOffset" : 0, "componentType" : 5123, "count" : 534, "type" : "SCALAR", "max" : [447], "min" : [0]}, {"bufferView" : 1, "byteOffset" : 0, "componentType" : 5126, "count" : 448, "type" : "VEC3", "max" : [210.6813507080078, -74.38660430908203, 523.9517211914062], "min" : [-197.87979125976562, -132.35557556152344, -520.4255981445312], "name" : "POSITION"}, {"bufferView" : 1, "byteOffset" : 12, "componentType" : 5126, "count" : 448, "type" : "VEC3", "max" : [1.0000044107437134, 1.0000044107437134, 1.0000044107437134], "min" : [-1.0000044107437134, -1.0000044107437134, -1.0000044107437134], "name" : "NORMAL"}, {"bufferView" : 1, "byteOffset" : 24, "componentType" : 5126, "count" : 448, "type" : "VEC2", "max" : [1, 1], "min" : [0, 0], "name" : "TEXCOORD_0"}, {"bufferView" : 0, "byteOffset" : 1068, "componentType" : 5123, "count" : 378, "type" : "SCALAR", "max" : [319], "min" : [0]}, {"bufferView" : 2, "byteOffset" : 0, "componentType" : 5126, "count" : 320, "type" : "VEC3", "max" : [204.55499267578125, 467.549072265625, 528.481201171875], "min" : [-188.8653564453125, -126.22053527832031, -513.500732421875], "name" : "POSITION"}, {"bufferView" : 2, "byteOffset" : 12, "componentType" : 5126, "count" : 320, "type" : "VEC3", "max" : [0.9885262250900269, 0.9947704076766968, 0.999861478805542], "min" : [-0.9965629577636719, -1.0000044107437134, -0.9978744983673096], "name" : "NORMAL"}, {"bufferView" : 2, "byteOffset" : 24, "componentType" : 5126, "count" : 320, "type" : "VEC2", "max" : [0.9552834630012512, 1], "min" : [0.024080540984869003, -0.010535717010498047], "name" : "TEXCOORD_0"}, {"bufferView" : 0, "byteOffset" : 1824, "componentType" : 5123, "count" : 6, "type" : "SCALAR", "max" : [4], "min" : [0]}, {"bufferView" : 3, "byteOffset" : 0, "componentType" : 5126, "count" : 5, "type" : "VEC3", "max" : [210.6813507080078, -132.35549926757812, 523.9517211914062], "min" : [-197.87979125976562, -132.35557556152344, -520.4255981445312], "name" : "POSITION"}, {"bufferView" : 3, "byteOffset" : 12, "componentType" : 5126, "count" : 5, "type" : "VEC3", "max" : [-3.661908110075274E-08, 1.0000044107437134, -5.844193040616119E-08], "min" : [-3.661908110075274E-08, 1.0000044107437134, -5.844193040616119E-08], "name" : "NORMAL"}, {"bufferView" : 3, "byteOffset" : 24, "componentType" : 5126, "count" : 5, "type" : "VEC2", "max" : [0, 1], "min" : [0, 1], "name" : "TEXCOORD_0"}], "asset" : {"generator" : "Aspose.3D 23.9.0", "version" : "2.0"}, "buffers" : [{"uri" : "data:application/octet-stream;base64,", "byteLength" : 31228}], "bufferViews" : [{"buffer" : 0, "byteOffset" : 0, "byteLength" : 1836, "target" : 34963}, {"buffer" : 0, "byteOffset" : 1840, "byteLength" : 17088, "byteStride" : 32, "target" : 34962}, {"buffer" : 0, "byteOffset" : 18932, "byteLength" : 12096, "byteStride" : 32, "target" : 34962}, {"buffer" : 0, "byteOffset" : 31032, "byteLength" : 192, "byteStride" : 32, "target" : 34962}], "images" : [{"uri" : "data:image/jpeg;base64,"}], "materials" : [{"name" : "R255_G255_B255", "pbrMetallicRoughness" : {"baseColorFactor" : [1, 1, 1, 1], "metallicFactor" : 0, "roughnessFactor" : 0.15818187594413757}, "emissiveFactor" : [0, 0, 0], "alphaMode" : "OPAQUE", "doubleSided" : true}, {"name" : "Material.001", "pbrMetallicRoughness" : {"baseColorFactor" : [1, 1, 1, 1], "baseColorTexture" : {"index" : 0, "texCoord" : 0}, "metallicFactor" : 0, "roughnessFactor" : 0.3590909242630005}, "emissiveFactor" : [0, 0, 0], "alphaMode" : "OPAQUE", "doubleSided" : true}, {"name" : "TOP", "pbrMetallicRoughness" : {"baseColorFactor" : [0.800000011920929, 0.800000011920929, 0.800000011920929, 1], "metallicFactor" : 0, "roughnessFactor" : 0.5}, "emissiveFactor" : [0, 0, 0], "alphaMode" : "OPAQUE", "doubleSided" : true}], "meshes" : [{"primitives" : [{"attributes" : {"POSITION" : 1, "NORMAL" : 2, "TEXCOORD_0" : 3}, "indices" : 0, "material" : 0, "mode" : 4}, {"attributes" : {"POSITION" : 5, "NORMAL" : 6, "TEXCOORD_0" : 7}, "indices" : 4, "material" : 1, "mode" : 4}, {"attributes" : {"POSITION" : 9, "NORMAL" : 10, "TEXCOORD_0" : 11}, "indices" : 8, "material" : 2, "mode" : 4}]}], "nodes" : [{"matrix" : [1.0155513445784555E-09, 0, -0.00755850047845389, 0, 0, -0.008515278808772564, 0, 0, 0.01147683677796779, 0, 1.5420144583700259E-09, 0, -1.0051937103271484, 12.341630935668945, 0.7683568000793457, 1], "mesh" : 0, "name" : "3D desks (1)"}], "samplers" : [{"magFilter" : 9729, "minFilter" : 9987, "wrapS" : 33071, "wrapT" : 33071}], "scene" : 0, "scenes" : [{"nodes" : [0]}], "textures" : [{"sampler" : 0, "source" : 0, "name" : ""}]}